<?xml version="1.0" encoding="utf-8"?>
<!-- Generator: Adobe Illustrator 26.0.2, SVG Export Plug-In . SVG Version: 6.00 Build 0)  -->
<svg version="1.1" id="Calque_1" xmlns="http://www.w3.org/2000/svg" xmlns:xlink="http://www.w3.org/1999/xlink" x="0px" y="0px"
	 viewBox="0 0 3172.3 806.3" style="enable-background:new 0 0 3172.3 806.3;" xml:space="preserve">
<style type="text/css">
	.st0{fill:none;}
	.st1{enable-background:new    ;}
</style>
<g transform="scale(8.6150721013095) translate(10, 10)">
	<g id="SvgjsG1144" transform="matrix(1.0763344128067536,0,0,1.0763344128067536,-21.152231093476473,-17.020978043403748)">
		<g>
			<path d="M104.8,30.9c-0.1-0.1-0.3-0.1-0.4,0l0,0L89.2,46.3l13.1-17.1c0.1-0.1,0.1-0.3-0.1-0.4c-0.1-0.1-0.3-0.1-0.4,0.1
				L88.3,46.5l-0.2-0.3C84,41.1,77.2,36.3,73,35.4c-0.2,0-0.3,0.1-0.4,0.2c0,0.2,0.1,0.3,0.2,0.4l0,0c4.1,0.9,10.7,5.6,14.7,10.6
				l0.3,0.4l-0.7,0.9c-0.4-0.2-0.8-0.4-1.2-0.4c-2.3-2.8-5.1-5.1-8.2-7c-3.6-2.1-6.4-2.7-7.7-1.7c-0.5,0.4-1,1.4-0.2,3.3
				c0.1,0.2,0.2,0.2,0.4,0.2c0.2-0.1,0.2-0.2,0.2-0.4l0,0c-0.3-0.9-0.6-2,0.1-2.6c0.8-0.7,3-0.5,7,1.8c2.9,1.7,5.5,3.9,7.7,6.5
				c-0.2,0-0.3,0.1-0.5,0.2c-3.6-2.7-8-4.9-9.4-3.2c-1.6,1.9,1.3,6.4,5.4,10.4L67,68.6c-0.1,0.1-0.1,0.3,0,0.4l0,0
				c0.1,0.1,0.1,0.1,0.2,0.1s0.2,0,0.2-0.1L81,55.2l0.2,0.2L69.5,70.9c-0.1,0.1-0.1,0.3,0.1,0.4c0.1,0,0.1,0.1,0.2,0.1
				s0.2,0,0.2-0.1l11.7-15.4c0.3,0.3,0.7,0.6,1,0.9c0.1,0.1,0.3,0.1,0.4,0s0.1-0.3,0-0.4c-6-5.1-8.6-10-7.4-11.5
				c0.8-0.9,3.9,0,8,2.9c-1.6-0.3-2.3,0.2-2.6,0.6c-0.7,1.1,0.2,3.3,2.3,5.9c4.1,5.1,10.9,9.9,15.1,10.8h0.1c0.1,0,0.3-0.1,0.3-0.2
				c0-0.2-0.1-0.3-0.2-0.4C94.6,63.6,88,58.9,84,53.9c-2.3-2.8-2.6-4.5-2.3-5.2c0.3-0.4,0.9-0.5,1.4-0.4c0,0.3,0,0.7,0.2,1
				c0,0,0,0,0,0.1l0,0c1.2,3.2,5.9,8,10.5,10.6c2.5,1.4,4.6,2.2,6,2.2c0.6,0,1.2-0.1,1.6-0.5c0.5-0.4,1-1.4,0.2-3.3
				c-0.1-0.2-0.2-0.2-0.4-0.2l0,0c-0.2,0.1-0.2,0.2-0.2,0.4c0.3,0.9,0.6,2-0.1,2.6c-0.8,0.6-3,0.5-7-1.8c-3.5-2.1-6.5-4.9-8.9-8.1
				l0.3,0.2l0,0c1.9,1.7,4.1,3.1,6.5,4.2c0.9,0.4,1.8,0.7,2.8,0.7c0.6,0,1.1-0.2,1.5-0.6c1.4-1.7-0.8-6-5.4-10.5l14-14.1
				C104.9,31.2,104.9,31,104.8,30.9L104.8,30.9z M88.3,51.3c0.2-0.3,0.2-0.7,0.2-1.1c0-0.6-0.2-1.3-0.6-1.8l0.7-0.7
				c1.4,2.1,1.6,3.4,1.3,3.9C89.6,52,89,52.1,88.5,52C88.5,51.8,88.5,51.6,88.3,51.3z M84.9,50.3L84.9,50.3
				c-0.2-0.3-0.3-0.3-0.4-0.4l-0.1-0.2l-0.2-0.2l-0.1-0.2L84,49.1c0.4-0.6,1.1-1,1.8-1c0.4,0,0.7,0.1,1,0.3l-1.1,1.5
				c-0.1,0.1-0.1,0.3,0,0.4c0.1,0.1,0.1,0.1,0.2,0.1s0.2,0,0.2-0.1l1.3-1.3c0.5,0.6,0.6,1.5,0.2,2.3c-0.1,0.3-0.3,0.5-0.5,0.7
				l-0.2-0.1l-0.2-0.1l-0.3-0.2l-0.2-0.1c-0.1-0.1-0.2-0.1-0.3-0.2c-0.1,0-0.1-0.1-0.2-0.1c-0.2-0.1-0.3-0.2-0.5-0.4
				S85,50.4,84.9,50.3z M95.8,55.6c-0.5,0.6-1.8,0.4-3.6-0.3c-1.6-0.7-3-1.6-4.4-2.6c0.3,0.1,0.6,0.1,1,0.1c0.6,0.1,1.3-0.2,1.6-0.7
				c0.6-0.9,0.1-2.6-1.4-4.7l1.4-1.4C94.7,50.1,97,54.2,95.8,55.6z"/>
		</g>
	</g>
	<g id="SvgjsG1145" transform="matrix(1.4975624547599702,0,0,1.4975624547599702,83.20292462583198,17.01462527144018)">
		<path d="M14.3,17.1h4.3v0.4h-4.7V8.7h0.4V17.1z M27,17.5L25.9,15h-5l-1.1,2.5h-0.4l3.9-8.7h0.2l3.9,8.7H27z M21,14.6h4.7l-2.3-5.3
			L21,14.6z M34.4,17.5H34l-2.6-3.4c-0.1,0-0.2,0-0.4,0h-2.3v3.3h-0.3V8.7h2.7c2,0,3,1.2,3,2.7c0,1.3-0.8,2.4-2.2,2.6L34.4,17.5z
			 M28.8,13.7h2.3c1.6,0,2.6-0.9,2.6-2.3s-1-2.3-2.6-2.3h-2.3V13.7z M42.7,17.5L41.6,15h-5l-1.2,2.5H35l3.9-8.7h0.2l3.9,8.7H42.7
			L42.7,17.5z M36.7,14.6h4.7L39,9.3L36.7,14.6z M51.2,8.7h0.4l-3.9,8.7h-0.2l-3.9-8.7H44l3.6,8.1L51.2,8.7z M53,17.1h4.5v0.4h-4.8
			h-0.1V8.7H53h4.4v0.4H53v3.8h3.5v0.4H53V17.1L53,17.1z M59.2,17.1h4.3v0.4h-4.7V8.7h0.4L59.2,17.1L59.2,17.1z"/>
	</g>
	<rect x="-275.4" y="-49.3" class="st0" width="1053.9" height="178.1"/>
	<g class="st1">
		<path d="M200.7,31.9h-3.6v11.5h-2.8V31.9h-3.6v-2.4h9.9L200.7,31.9L200.7,31.9z"/>
		<path d="M201.9,31c0-0.8,0.7-1.5,1.5-1.5s1.5,0.7,1.5,1.5c0,0.8-0.7,1.5-1.5,1.5S201.9,31.8,201.9,31z M202.1,34.1h2.7v9.3h-2.7
			V34.1z"/>
		<path d="M221.9,37.5v5.9h-2.7v-5.6c0-0.8-0.6-1.5-1.5-1.5c-1.1,0-1.8,0.8-1.8,1.7v5.4h-2.7v-5.6c0-0.8-0.6-1.5-1.5-1.5
			c-1.1,0-1.8,0.8-1.8,1.7v5.4h-2.7v-9.3h2.4l0.1,1c0.7-0.7,1.6-1.2,2.6-1.2c1.3,0,2.3,0.5,2.9,1.4c0.7-0.9,1.8-1.4,3.1-1.4
			C220.5,33.9,221.9,35.3,221.9,37.5z"/>
		<path d="M232.5,39.5h-6.3c0.1,1.2,0.8,2,2,2c0.9,0,1.5-0.3,2.2-1.3l1.9,0.9c-0.7,1.5-2.2,2.4-4,2.4c-3.3,0-4.8-2.1-4.8-4.8
			s1.7-4.8,4.7-4.8c2.7,0,4.3,1.9,4.3,4.8C232.6,39,232.6,39.2,232.5,39.5z M226.3,37.7h3.7c-0.2-1.1-0.7-1.7-1.8-1.7
			C227.1,36,226.5,36.7,226.3,37.7z"/>
		<path d="M238.4,41l1.9-1.9c0.8,1.2,2.1,1.9,3.7,1.9c1.3,0,2.2-0.4,2.2-1.5c0-1.3-1.5-1.9-3.2-2.5c-1.9-0.7-3.9-1.6-3.9-3.8
			c0-2.3,2-3.8,4.7-3.8c2.2,0,4,0.8,5.1,2l-1.8,1.8c-0.9-1-1.8-1.4-3.2-1.4c-1.1,0-1.9,0.5-1.9,1.4c0,0.9,1.2,1.4,2.6,2
			c2,0.8,4.4,1.7,4.4,4.4c0,2.8-2.3,4.1-5.2,4.1C241.6,43.6,239.5,42.5,238.4,41z"/>
		<path d="M259.3,39.5H253c0.1,1.2,0.8,2,2,2c0.9,0,1.5-0.3,2.2-1.3l1.9,0.9c-0.7,1.5-2.2,2.4-4,2.4c-3.3,0-4.8-2.1-4.8-4.8
			s1.7-4.8,4.7-4.8c2.7,0,4.3,1.9,4.3,4.8C259.3,39,259.3,39.2,259.3,39.5z M253,37.7h3.7c-0.2-1.1-0.7-1.7-1.8-1.7
			C253.8,36,253.2,36.7,253,37.7z"/>
		<path d="M268.5,34.7l-1.1,2c-0.3-0.2-0.7-0.4-1.4-0.4c-1.1,0-2.2,0.9-2.2,2.5v4.6h-2.7v-9.3h2.4l0.1,1.4c0.6-1,1.6-1.6,2.7-1.6
			C267.3,33.9,267.9,34.2,268.5,34.7z"/>
		<path d="M269.3,31c0-0.8,0.7-1.5,1.5-1.5s1.5,0.7,1.5,1.5c0,0.8-0.7,1.5-1.5,1.5C270,32.5,269.3,31.8,269.3,31z M269.4,34.1h2.7
			v9.3h-2.7V34.1z"/>
		<path d="M283,39.5h-6.3c0.1,1.2,0.8,2,2,2c0.9,0,1.5-0.3,2.2-1.3l1.9,0.9c-0.7,1.5-2.2,2.4-4,2.4c-3.3,0-4.8-2.1-4.8-4.8
			s1.7-4.8,4.7-4.8c2.7,0,4.3,1.9,4.3,4.8C283.1,39,283.1,39.2,283,39.5z M276.8,37.7h3.7c-0.2-1.1-0.7-1.7-1.8-1.7
			C277.6,36,277,36.7,276.8,37.7z"/>
		<path d="M284.2,42.4l1.2-1.9c0.6,0.5,1.9,0.9,2.8,1s1.5-0.2,1.5-0.7c0-0.6-0.9-0.9-1.9-1.2c-1.4-0.4-3.1-0.9-3.1-2.7s1.5-3,3.9-3
			c1.2,0,2.7,0.3,3.8,1l-1.3,1.7c-0.5-0.4-1.4-0.7-2.1-0.8c-0.8-0.1-1.6,0.1-1.6,0.7c0,0.6,1,0.9,2.1,1.2c1.4,0.4,3,1,3,2.9
			c0,1.8-1.4,3-3.7,3C286.9,43.6,285.2,43.2,284.2,42.4z"/>
	</g>
</g>
</svg>
