<?xml version="1.0" encoding="utf-8"?>
<svg version="1.1" id="Calque_1" xmlns="http://www.w3.org/2000/svg" xmlns:xlink="http://www.w3.org/1999/xlink" x="0px" y="0px"
     viewBox="0 0 3172.3 806.3" style="enable-background:new 0 0 3172.3 806.3;" xml:space="preserve">
<style type="text/css">
	.st0{fill:#FFFFFF;}
</style>
<g transform="scale(8.6150721013095) translate(10, 10)">
	<g id="SvgjsG1144" transform="matrix(1.0763344128067536,0,0,1.0763344128067536,-21.152231093476473,-17.020978043403748)">
		<g>
			<path class="st0" d="M48.2,8.7c-0.1-0.1-0.3-0.1-0.4,0l0,0L32.6,24.1L45.7,7c0.1-0.1,0.1-0.3-0.1-0.4c-0.1-0.1-0.3-0.1-0.4,0.1
				L31.7,24.3L31.5,24c-4.1-5.1-10.9-9.9-15.1-10.8c-0.2,0-0.3,0.1-0.4,0.2c0,0.2,0.1,0.3,0.2,0.4l0,0c4.1,0.9,10.7,5.6,14.7,10.6
				l0.3,0.4l-0.7,0.9c-0.4-0.2-0.8-0.4-1.2-0.4c-2.3-2.8-5.1-5.1-8.2-7c-3.6-2.1-6.4-2.7-7.7-1.7c-0.5,0.4-1,1.4-0.2,3.3
				c0.1,0.2,0.2,0.2,0.4,0.2c0.2-0.1,0.2-0.2,0.2-0.4l0,0c-0.3-0.9-0.6-2,0.1-2.6c0.8-0.7,3-0.5,7,1.8c2.9,1.7,5.5,3.9,7.7,6.5
				c-0.2,0-0.3,0.1-0.5,0.2c-3.6-2.7-8-4.9-9.4-3.2c-1.6,1.9,1.3,6.4,5.4,10.4L10.4,46.4c-0.1,0.1-0.1,0.3,0,0.4l0,0
				c0.1,0.1,0.1,0.1,0.2,0.1s0.2,0,0.2-0.1L24.4,33l0.2,0.2L12.9,48.7c-0.1,0.1-0.1,0.3,0.1,0.4c0.1,0,0.1,0.1,0.2,0.1
				s0.2,0,0.2-0.1l11.7-15.4c0.3,0.3,0.7,0.6,1,0.9c0.1,0.1,0.3,0.1,0.4,0s0.1-0.3,0-0.4c-6-5.1-8.6-10-7.4-11.5
				c0.8-0.9,3.9,0,8,2.9c-1.6-0.3-2.3,0.2-2.6,0.6c-0.7,1.1,0.2,3.3,2.3,5.9c4.1,5.1,10.9,9.9,15.1,10.8H42c0.1,0,0.3-0.1,0.3-0.2
				c0-0.2-0.1-0.3-0.2-0.4c-4.1-0.9-10.7-5.6-14.7-10.6c-2.3-2.8-2.6-4.5-2.3-5.2c0.3-0.4,0.9-0.5,1.4-0.4c0,0.3,0,0.7,0.2,1
				c0,0,0,0,0,0.1l0,0c1.2,3.2,5.9,8,10.5,10.6c2.5,1.4,4.6,2.2,6,2.2c0.6,0,1.2-0.1,1.6-0.5c0.5-0.4,1-1.4,0.2-3.3
				C44.9,36,44.8,36,44.6,36l0,0c-0.2,0.1-0.2,0.2-0.2,0.4c0.3,0.9,0.6,2-0.1,2.6c-0.8,0.6-3,0.5-7-1.8c-3.5-2.1-6.5-4.9-8.9-8.1
				l0.3,0.2l0,0c1.9,1.7,4.1,3.1,6.5,4.2c0.9,0.4,1.8,0.7,2.8,0.7c0.6,0,1.1-0.2,1.5-0.6c1.4-1.7-0.8-6-5.4-10.5L48.1,9
				C48.3,9,48.3,8.8,48.2,8.7L48.2,8.7z M31.7,29.1c0.2-0.3,0.2-0.7,0.2-1.1c0-0.6-0.2-1.3-0.6-1.8l0.7-0.7c1.4,2.1,1.6,3.4,1.3,3.9
				c-0.3,0.4-0.9,0.5-1.4,0.4C31.9,29.6,31.9,29.4,31.7,29.1z M28.3,28.1L28.3,28.1c-0.2-0.3-0.3-0.3-0.4-0.4l-0.1-0.2l-0.2-0.2
				l-0.1-0.2l-0.1-0.2c0.4-0.6,1.1-1,1.8-1c0.4,0,0.7,0.1,1,0.3l-1.1,1.5c-0.1,0.1-0.1,0.3,0,0.4c0.1,0.1,0.1,0.1,0.2,0.1
				s0.2,0,0.2-0.1l1.3-1.3c0.5,0.6,0.6,1.5,0.2,2.3c-0.1,0.3-0.3,0.5-0.5,0.7l-0.2-0.1l-0.2-0.1l-0.3-0.2l-0.2-0.1
				c-0.1-0.1-0.2-0.1-0.3-0.2c-0.1,0-0.1-0.1-0.2-0.1c-0.2-0.1-0.3-0.2-0.5-0.4S28.4,28.2,28.3,28.1z M39.2,33.4
				c-0.5,0.6-1.8,0.4-3.6-0.3c-1.6-0.7-3-1.6-4.4-2.6c0.3,0.1,0.6,0.1,1,0.1c0.6,0.1,1.3-0.2,1.6-0.7c0.6-0.9,0.1-2.6-1.4-4.7
				l1.4-1.4C38.1,27.9,40.4,32,39.2,33.4z"/>
		</g>
	</g>
	<g id="SvgjsG1145" transform="matrix(1.4975624547599702,0,0,1.4975624547599702,83.20292462583198,17.01462527144018)">
		<path class="st0" d="M-26.4,1.1h4.3v0.4h-4.7v-8.8h0.4V1.1z M-13.7,1.5L-14.8-1h-5l-1.1,2.5h-0.4l3.9-8.7h0.2l3.9,8.7H-13.7z
			 M-19.7-1.4h4.7l-2.3-5.3L-19.7-1.4z M-6.3,1.5h-0.4l-2.6-3.4c-0.1,0-0.2,0-0.4,0H-12v3.3h-0.3v-8.7h2.7c2,0,3,1.2,3,2.7
			c0,1.3-0.8,2.4-2.2,2.6L-6.3,1.5z M-11.9-2.3h2.3C-8-2.3-7-3.2-7-4.6s-1-2.3-2.6-2.3h-2.3V-2.3z M2,1.5L0.9-1h-5l-1.2,2.5h-0.4
			l3.9-8.7h0.2l3.9,8.7H2L2,1.5z M-4-1.4h4.7l-2.4-5.3L-4-1.4z M10.5-7.3h0.4L7,1.4H6.8L2.9-7.3h0.4l3.6,8.1L10.5-7.3z M12.3,1.1
			h4.5v0.4H12h-0.1v-8.8h0.4h4.4v0.4h-4.4v3.8h3.5v0.4h-3.5V1.1L12.3,1.1z M18.5,1.1h4.3v0.4h-4.7v-8.8h0.4L18.5,1.1L18.5,1.1z"/>
	</g>
	<g id="SvgjsG1146" transform="matrix(1.4739786317175434,0,0,1.4739786317175434,213.82954940912273,17.509885555331145)">
		<path class="st0" d="M-47.8-3.2c0,1.2-0.4,2.3-1.2,3.1l1,1.3h-2.2l-0.2-0.3c-0.6,0.3-1.3,0.4-2,0.4c-2.4,0-4.5-1.8-4.5-4.5
			s2.1-4.5,4.5-4.5C-50-7.7-47.8-5.8-47.8-3.2L-47.8-3.2z M-52.4-0.4c0.3,0,0.6,0,0.9-0.1l-1.6-2.2h2.1l0.9,1.1
			c0.3-0.4,0.4-1,0.4-1.6c0-1.6-1.2-2.8-2.6-2.8c-1.4,0-2.6,1.2-2.6,2.8S-53.8-0.4-52.4-0.4L-52.4-0.4z M-41.6-7.5h1.8v5.6
			c0,2.1-1.5,3.4-3.4,3.4c-1.9,0-3.4-1.2-3.4-3.4v-5.6h1.8v5.6c0,1.3,0.8,1.6,1.6,1.6c0.7,0,1.5-0.4,1.5-1.6v-5.6H-41.6z M-31.3,1.2
			L-32-0.4h-4.2l-0.7,1.6h-1.9l3.9-8.7h1.6l3.9,8.7H-31.3L-31.3,1.2z M-35.5-1.8h2.9l-1.5-3.5L-35.5-1.8z M-25.5-7.7
			c1.5,0,2.5,1,3,1.8l-1.3,0.8c-0.5-0.7-0.9-1-1.6-1c-0.6,0-1.1,0.4-1.1,0.9s0.3,0.8,1,1l0.6,0.2c1.9,0.7,2.7,1.5,2.7,2.7
			c0,1.8-1.7,2.6-3.2,2.6c-1.6,0-2.8-0.9-3.2-2.2l1.4-0.7c0.3,0.6,0.8,1.2,1.8,1.2c0.7,0,1.3-0.3,1.3-1c0-0.6-0.4-0.9-1.3-1.3
			l-0.5-0.2c-1.3-0.5-2.3-1.1-2.3-2.6C-28.3-6.7-27-7.7-25.5-7.7L-25.5-7.7z M-14.1,1.2l-0.7-1.6H-19l-0.7,1.6h-1.9l3.9-8.7h1.6
			l3.9,8.7H-14.1z M-18.3-1.8h2.9l-1.5-3.5L-18.3-1.8z M-4.2,1.2h-1.9L-8-1.7l0,0h-1.2v2.9h-1.9v-8.7h3c2,0,3.2,1.2,3.2,3
			c0,1.2-0.6,2.1-1.5,2.5L-4.2,1.2z M-9.3-5.9v2.6h1.1c0.9,0,1.5-0.3,1.5-1.3c0-0.9-0.6-1.3-1.5-1.3L-9.3-5.9L-9.3-5.9z"/>
	</g>
</g>
</svg>
