
        <svg xmlns="http://www.w3.org/2000/svg" xmlns:xlink="http://www.w3.org/1999/xlink" version="1.1" width="3172.30144202619" height="806.3328893555803" viewBox="0 0 3172.30144202619 806.3328893555803">
			
			<g transform="scale(8.6150721013095) translate(10, 10)">
				<defs id="SvgjsDefs1143"/><g id="SvgjsG1144" featureKey="symbolFeature-0" transform="matrix(1.0763344128067536,0,0,1.0763344128067536,-21.152231093476473,-17.020978043403748)" fill="#000"><title xmlns="http://www.w3.org/2000/svg">Artboard 47</title><g xmlns="http://www.w3.org/2000/svg"><path d="M80.19,19.47a.49.49,0,0,0-.7,0L55.23,44.06l21-27.44a.52.52,0,0,0-.1-.71.51.51,0,0,0-.7.1L53.85,44.22l-.37-.45C46.84,35.63,36,27.86,29.33,26.44a.51.51,0,0,0-.59.39.49.49,0,0,0,.38.59c6.49,1.38,17.07,9,23.59,17l.51.64-1.16,1.52a4.3,4.3,0,0,0-2-.61A51.91,51.91,0,0,0,37,34.75c-5.84-3.4-10.32-4.4-12.28-2.72-.82.7-1.55,2.17-.38,5.22a.5.5,0,0,0,.64.29.5.5,0,0,0,.29-.65c-.53-1.38-.94-3.22.09-4.1,1.24-1.05,4.81-.86,11.13,2.82A51,51,0,0,1,48.84,46a3.74,3.74,0,0,0-.8.26c-5.7-4.37-12.76-7.82-15-5.18-2.51,3,2.06,10.19,8.57,16.61L19.8,79.82a.5.5,0,0,0,0,.71.46.46,0,0,0,.35.14.47.47,0,0,0,.35-.15l21.81-22.1.32.31L23.8,83.38a.52.52,0,0,0,.1.71.57.57,0,0,0,.3.1.51.51,0,0,0,.4-.2L43.38,59.41c.53.5,1.08,1,1.64,1.46a.5.5,0,0,0,.65-.76c-9.53-8.14-13.83-16-11.88-18.34,1.26-1.47,6.31-.08,12.78,4.67-2.57-.52-3.67.26-4.13,1-1.1,1.8.25,5.26,3.69,9.48,6.64,8.14,17.48,15.91,24.15,17.32h.11a.5.5,0,0,0,.49-.39.52.52,0,0,0-.39-.6c-6.49-1.37-17.07-9-23.59-17C43.23,51.8,42.67,49,43.29,48a2.25,2.25,0,0,1,2.21-.68,2.23,2.23,0,0,0,.35,1.54.41.41,0,0,0,0,.09.13.13,0,0,0,0,.06c2,5.12,9.47,12.73,16.75,17,4,2.32,7.31,3.52,9.67,3.52a4,4,0,0,0,2.61-.8c.82-.7,1.55-2.17.38-5.22a.5.5,0,0,0-.65-.29.5.5,0,0,0-.29.64c.53,1.39,1,3.22-.09,4.11-1.24,1-4.81.86-11.13-2.82A49.25,49.25,0,0,1,48.81,52.15l.48.38a.21.21,0,0,1,0,.06,42.81,42.81,0,0,0,10.38,6.76,12.07,12.07,0,0,0,4.49,1.14,3,3,0,0,0,2.38-.91c2.28-2.66-1.31-9.55-8.71-16.77L80.2,20.18A.5.5,0,0,0,80.19,19.47ZM53.87,52.09a4.31,4.31,0,0,0,.37-1.74,4.36,4.36,0,0,0-1-2.81l1.06-1.07c2.27,3.29,2.59,5.39,2.06,6.26a2.25,2.25,0,0,1-2.21.68A2,2,0,0,0,53.87,52.09ZM48.4,50.46l-.23-.24q-.22-.22-.42-.45l-.22-.27-.32-.39L47,48.83l-.15-.25a3.4,3.4,0,0,1,2.94-1.66,3.38,3.38,0,0,1,1.64.44l-1.81,2.37a.5.5,0,0,0,.07.68.51.51,0,0,0,.33.13.47.47,0,0,0,.35-.15l2.11-2.14a3.38,3.38,0,0,1,.38,3.63A3.56,3.56,0,0,1,52,53l-.28-.12-.29-.14L51,52.46l-.29-.17c-.18-.11-.36-.24-.53-.36a2.27,2.27,0,0,1-.25-.18c-.26-.19-.53-.4-.78-.62S48.63,50.68,48.4,50.46Zm17.42,8.47c-.76.89-2.9.7-5.72-.5a36.86,36.86,0,0,1-7.05-4.17,8.58,8.58,0,0,0,1.54.17,2.75,2.75,0,0,0,2.58-1.18c.93-1.52.12-4.2-2.19-7.51l2.18-2.22C64,50.14,67.68,56.76,65.82,58.93Z"/></g></g><g id="SvgjsG1145" featureKey="nameLeftFeature-0" transform="matrix(1.4975624547599702,0,0,1.4975624547599702,83.20292462583198,17.01462527144018)" fill="#000"><path d="M1.78 19.42 l6.94 0 l0 0.58 l-7.52 0 l0 -14 l0.58 0 l0 13.42 z M22.14 20 l-1.78 -3.98 l-8.04 0 l-1.78 3.98 l-0.62 0 l6.26 -14 l0.3 0 l6.28 14 l-0.62 0 z M12.559999999999999 15.46 l7.56 0 l-3.78 -8.46 z M34.019999999999996 20 l-0.72 0 l-4.08 -5.38 c-0.2 0.02 -0.4 0.02 -0.6 0.02 l-3.68 0 l0 5.36 l-0.58 0 l0 -14 l4.26 0 c3.14 0 4.8 1.94 4.8 4.3 c0 2.08 -1.22 3.8 -3.56 4.24 z M24.94 14.04 l3.76 0 c2.52 0 4.14 -1.46 4.14 -3.74 c0 -2.32 -1.62 -3.72 -4.14 -3.72 l-3.76 0 l0 7.46 z M47.24 20 l-1.78 -3.98 l-8.04 0 l-1.78 3.98 l-0.62 0 l6.26 -14 l0.3 0 l6.28 14 l-0.62 0 z M37.660000000000004 15.46 l7.56 0 l-3.78 -8.46 z M60.88 6 l0.62 0 l-6.28 14 l-0.3 0 l-6.26 -14 l0.62 0 l5.8 13 z M63.68000000000001 19.42 l7.28 0 l0 0.58 l-7.68 0 l-0.18 0 l0 -14 l0.58 0 l7.1 0 l0 0.58 l-7.1 0 l0 6.1 l5.66 0 l0 0.58 l-5.66 0 l0 6.16 z M73.64000000000001 19.42 l6.94 0 l0 0.58 l-7.52 0 l0 -14 l0.58 0 l0 13.42 z"/></g><g id="SvgjsG1146" featureKey="nameRightFeature-0" transform="matrix(1.4739786317175434,0,0,1.4739786317175434,213.82954940912273,17.509885555331145)" fill="#000"><path d="M21.42 13 c0 1.98 -0.72 3.66 -1.88 4.92 l1.56 2.08 l-3.44 0 l-0.36 -0.48 c-0.96 0.44 -2.02 0.68 -3.14 0.68 c-3.9 0 -7.26 -2.94 -7.26 -7.2 s3.36 -7.2 7.26 -7.2 s7.26 2.94 7.26 7.2 z M14.16 17.46 c0.5 0 0.96 -0.08 1.4 -0.24 l-2.66 -3.54 l3.44 0 l1.36 1.82 c0.44 -0.7 0.68 -1.56 0.68 -2.5 c0 -2.6 -1.86 -4.46 -4.22 -4.46 s-4.22 1.86 -4.22 4.46 s1.86 4.46 4.22 4.46 z M31.42 6 l2.92 0 l0 8.92 c0 3.4 -2.46 5.38 -5.4 5.38 s-5.42 -1.98 -5.42 -5.38 l0 -8.92 l2.92 0 l0 8.94 c0 2.04 1.34 2.62 2.5 2.62 c1.14 0 2.48 -0.58 2.48 -2.62 l0 -8.94 z M47.92 20 l-1.06 -2.5 l-6.76 0 l-1.06 2.5 l-3.1 0 l6.22 -14 l2.64 0 l6.24 14 l-3.12 0 z M41.12 15.120000000000001 l4.72 0 l-2.36 -5.54 z M57.22 5.76 c2.46 0 4.02 1.54 4.76 2.9 l-2.16 1.28 c-0.76 -1.06 -1.5 -1.6 -2.6 -1.6 c-0.98 0 -1.7 0.58 -1.7 1.38 s0.46 1.22 1.56 1.62 l0.96 0.34 c3.1 1.1 4.32 2.48 4.32 4.4 c0 2.82 -2.68 4.22 -5.06 4.22 c-2.52 0 -4.48 -1.5 -5.16 -3.46 l2.24 -1.18 c0.5 1.02 1.34 2 2.92 2 c1.14 0 2.02 -0.5 2.02 -1.54 c0 -1 -0.6 -1.44 -2.12 -2.02 l-0.86 -0.3 c-2.06 -0.74 -3.72 -1.76 -3.72 -4.2 c0 -2.24 2.1 -3.84 4.6 -3.84 z M75.44 20 l-1.06 -2.5 l-6.76 0 l-1.06 2.5 l-3.1 0 l6.22 -14 l2.64 0 l6.24 14 l-3.12 0 z M68.64 15.120000000000001 l4.72 0 l-2.36 -5.54 z M91.18 20 l-3.1 0 l-2.98 -4.66 l-0.04 0 l-1.98 0 l0 4.66 l-2.92 0 l0 -14 l4.9 0 c3.14 0 5.18 1.9 5.18 4.76 c0 1.9 -0.92 3.32 -2.48 4.04 z M83.08000000000001 8.68 l0 4.14 l1.8 0 c1.44 0 2.44 -0.56 2.44 -2.06 c0 -1.48 -1 -2.08 -2.44 -2.08 l-1.8 0 z"/></g>
			</g>
		</svg>
	