<?xml version="1.0" encoding="utf-8"?>
<!-- Generator: Adobe Illustrator 26.0.2, SVG Export Plug-In . SVG Version: 6.00 Build 0)  -->
<svg version="1.1" id="Calque_1" xmlns="http://www.w3.org/2000/svg" xmlns:xlink="http://www.w3.org/1999/xlink" x="0px" y="0px"
	 viewBox="0 0 3172.3 806.3" style="enable-background:new 0 0 3172.3 806.3;" xml:space="preserve">
<g transform="scale(8.6150721013095) translate(10, 10)">
	<g id="SvgjsG1144" transform="matrix(1.0763344128067536,0,0,1.0763344128067536,-21.152231093476473,-17.020978043403748)">
		<g>
			<path d="M118.2,30.9c-0.1-0.1-0.3-0.1-0.4,0c0,0,0,0,0,0l-15.2,15.4l13.1-17.1c0.1-0.1,0.1-0.3-0.1-0.4c-0.1-0.1-0.3-0.1-0.4,0.1
				l-13.5,17.6l-0.2-0.3c-4.1-5.1-10.9-9.9-15.1-10.8c-0.2,0-0.3,0.1-0.4,0.2c0,0.2,0.1,0.3,0.2,0.4c0,0,0,0,0,0
				c4.1,0.9,10.7,5.6,14.7,10.6l0.3,0.4l-0.7,0.9c-0.4-0.2-0.8-0.4-1.2-0.4c-2.3-2.8-5.1-5.1-8.2-7c-3.6-2.1-6.4-2.7-7.7-1.7
				c-0.5,0.4-1,1.4-0.2,3.3c0.1,0.2,0.2,0.2,0.4,0.2c0.2-0.1,0.2-0.2,0.2-0.4c0,0,0,0,0,0c-0.3-0.9-0.6-2,0.1-2.6
				c0.8-0.7,3-0.5,7,1.8c2.9,1.7,5.5,3.9,7.7,6.5c-0.2,0-0.3,0.1-0.5,0.2c-3.6-2.7-8-4.9-9.4-3.2c-1.6,1.9,1.3,6.4,5.4,10.4
				L80.4,68.6c-0.1,0.1-0.1,0.3,0,0.4c0,0,0,0,0,0c0.1,0.1,0.1,0.1,0.2,0.1c0.1,0,0.2,0,0.2-0.1l13.6-13.8l0.2,0.2L82.9,70.9
				c-0.1,0.1-0.1,0.3,0.1,0.4c0.1,0,0.1,0.1,0.2,0.1c0.1,0,0.2,0,0.2-0.1l11.7-15.4c0.3,0.3,0.7,0.6,1,0.9c0.1,0.1,0.3,0.1,0.4,0
				c0.1-0.1,0.1-0.3,0-0.4c-6-5.1-8.6-10-7.4-11.5c0.8-0.9,3.9,0,8,2.9c-1.6-0.3-2.3,0.2-2.6,0.6c-0.7,1.1,0.2,3.3,2.3,5.9
				c4.1,5.1,10.9,9.9,15.1,10.8h0.1c0.1,0,0.3-0.1,0.3-0.2c0-0.2-0.1-0.3-0.2-0.4c-4.1-0.9-10.7-5.6-14.7-10.6
				c-2.3-2.8-2.6-4.5-2.3-5.2c0.3-0.4,0.9-0.5,1.4-0.4c0,0.3,0,0.7,0.2,1c0,0,0,0,0,0.1c0,0,0,0,0,0c1.2,3.2,5.9,8,10.5,10.6
				c2.5,1.4,4.6,2.2,6,2.2c0.6,0,1.2-0.1,1.6-0.5c0.5-0.4,1-1.4,0.2-3.3c-0.1-0.2-0.2-0.2-0.4-0.2c0,0,0,0,0,0
				c-0.2,0.1-0.2,0.2-0.2,0.4c0.3,0.9,0.6,2-0.1,2.6c-0.8,0.6-3,0.5-7-1.8c-3.5-2.1-6.5-4.9-8.9-8.1l0.3,0.2c0,0,0,0,0,0
				c1.9,1.7,4.1,3.1,6.5,4.2c0.9,0.4,1.8,0.7,2.8,0.7c0.6,0,1.1-0.2,1.5-0.6c1.4-1.7-0.8-6-5.4-10.5l14-14.1
				C118.3,31.2,118.3,31,118.2,30.9C118.2,30.9,118.2,30.9,118.2,30.9z M101.7,51.3c0.2-0.3,0.2-0.7,0.2-1.1c0-0.6-0.2-1.3-0.6-1.8
				l0.7-0.7c1.4,2.1,1.6,3.4,1.3,3.9c-0.3,0.4-0.9,0.5-1.4,0.4C101.9,51.8,101.9,51.6,101.7,51.3z M98.3,50.3l-0.1-0.1
				C98.1,50,98,50,97.9,49.9l-0.1-0.2l-0.2-0.2l-0.1-0.2l-0.1-0.2c0.4-0.6,1.1-1,1.8-1c0.4,0,0.7,0.1,1,0.3l-1.1,1.5
				c-0.1,0.1-0.1,0.3,0,0.4c0.1,0.1,0.1,0.1,0.2,0.1c0.1,0,0.2,0,0.2-0.1l1.3-1.3c0.5,0.6,0.6,1.5,0.2,2.3c-0.1,0.3-0.3,0.5-0.5,0.7
				l-0.2-0.1l-0.2-0.1l-0.3-0.2l-0.2-0.1c-0.1-0.1-0.2-0.1-0.3-0.2c-0.1,0-0.1-0.1-0.2-0.1c-0.2-0.1-0.3-0.2-0.5-0.4
				S98.4,50.4,98.3,50.3z M109.2,55.6c-0.5,0.6-1.8,0.4-3.6-0.3c-1.6-0.7-3-1.6-4.4-2.6c0.3,0.1,0.6,0.1,1,0.1
				c0.6,0.1,1.3-0.2,1.6-0.7c0.6-0.9,0.1-2.6-1.4-4.7l1.4-1.4C108.1,50.1,110.4,54.2,109.2,55.6z"/>
		</g>
	</g>
	<g id="SvgjsG1145" transform="matrix(1.4975624547599702,0,0,1.4975624547599702,83.20292462583198,17.01462527144018)">
		<path d="M23.9,17.1h4.3v0.4h-4.7V8.7h0.4C23.9,8.7,23.9,17.1,23.9,17.1z M36.6,17.5L35.5,15h-5l-1.1,2.5H29l3.9-8.7h0.2l3.9,8.7
			H36.6z M30.6,14.6h4.7L33,9.3L30.6,14.6z M44,17.5h-0.4L41,14.1c-0.1,0-0.2,0-0.4,0h-2.3v3.3H38V8.7h2.7c2,0,3,1.2,3,2.7
			c0,1.3-0.8,2.4-2.2,2.6L44,17.5z M38.4,13.7h2.3c1.6,0,2.6-0.9,2.6-2.3c0-1.4-1-2.3-2.6-2.3h-2.3V13.7z M52.3,17.5L51.2,15h-5
			L45,17.5h-0.4l3.9-8.7h0.2l3.9,8.7H52.3L52.3,17.5z M46.3,14.6H51l-2.4-5.3L46.3,14.6z M60.8,8.7h0.4l-3.9,8.7h-0.2l-3.9-8.7h0.4
			l3.6,8.1L60.8,8.7z M62.6,17.1h4.5v0.4h-4.8h-0.1V8.7h0.4H67v0.4h-4.4v3.8h3.5v0.4h-3.5L62.6,17.1L62.6,17.1z M68.8,17.1h4.3v0.4
			h-4.7V8.7h0.4V17.1L68.8,17.1z"/>
	</g>
	<g id="SvgjsG1146" transform="matrix(1.4739786317175434,0,0,1.4739786317175434,213.82954940912273,17.509885555331145)">
		<path d="M3.3,13c0,1.2-0.4,2.3-1.2,3.1l1,1.3H0.9l-0.2-0.3c-0.6,0.3-1.3,0.4-2,0.4c-2.4,0-4.5-1.8-4.5-4.5s2.1-4.5,4.5-4.5
			S3.3,10.4,3.3,13L3.3,13z M-1.3,15.8c0.3,0,0.6,0,0.9-0.1L-2,13.5h2.1L1,14.6c0.3-0.4,0.4-1,0.4-1.6c0-1.6-1.2-2.8-2.6-2.8
			s-2.6,1.2-2.6,2.8S-2.7,15.8-1.3,15.8L-1.3,15.8z M9.5,8.7h1.8v5.6c0,2.1-1.5,3.4-3.4,3.4s-3.4-1.2-3.4-3.4V8.7h1.8v5.6
			c0,1.3,0.8,1.6,1.6,1.6c0.7,0,1.5-0.4,1.5-1.6V8.7L9.5,8.7z M19.8,17.4l-0.7-1.6h-4.2l-0.7,1.6h-1.9l3.9-8.7h1.6l3.9,8.7H19.8
			L19.8,17.4z M15.6,14.4h2.9l-1.5-3.5L15.6,14.4z M25.6,8.5c1.5,0,2.5,1,3,1.8l-1.3,0.8c-0.5-0.7-0.9-1-1.6-1
			c-0.6,0-1.1,0.4-1.1,0.9c0,0.5,0.3,0.8,1,1l0.6,0.2c1.9,0.7,2.7,1.5,2.7,2.7c0,1.8-1.7,2.6-3.2,2.6c-1.6,0-2.8-0.9-3.2-2.2
			l1.4-0.7c0.3,0.6,0.8,1.2,1.8,1.2c0.7,0,1.3-0.3,1.3-1c0-0.6-0.4-0.9-1.3-1.3l-0.5-0.2c-1.3-0.5-2.3-1.1-2.3-2.6
			C22.8,9.5,24.1,8.5,25.6,8.5L25.6,8.5z M37,17.4l-0.7-1.6h-4.2l-0.7,1.6h-1.9l3.9-8.7h1.6l3.9,8.7H37z M32.8,14.4h2.9l-1.5-3.5
			L32.8,14.4z M46.9,17.4h-1.9l-1.9-2.9h0h-1.2v2.9H40V8.7H43c2,0,3.2,1.2,3.2,3c0,1.2-0.6,2.1-1.5,2.5L46.9,17.4z M41.8,10.3v2.6
			h1.1c0.9,0,1.5-0.3,1.5-1.3c0-0.9-0.6-1.3-1.5-1.3H41.8z"/>
	</g>
</g>
</svg>
